<svg width="671" height="121" viewBox="0 0 671 121" fill="none" xmlns="http://www.w3.org/2000/svg">
<path fill-rule="evenodd" clip-rule="evenodd" d="M83.1491 88.7654C82.5977 88.2141 81.4951 87.6627 80.9438 87.6627C79.8411 87.1113 79.2897 87.1113 78.1871 86.56C76.5331 86.0087 74.3277 85.4573 72.6737 84.906C63.301 82.7006 54.4796 82.7006 45.1069 84.906C43.4529 85.4573 41.2475 86.0087 39.5935 86.56C37.9395 87.1113 36.2855 87.6627 34.6315 88.7654C34.0802 88.2141 32.9775 87.1113 32.4261 86.56C27.4641 81.598 23.0534 71.674 23.0534 63.9553C23.0534 59.5446 23.0534 57.3392 24.1561 52.9285C25.2588 49.6205 26.3614 46.3124 28.0154 43.5557C29.1181 41.9017 30.2208 40.2478 31.8748 38.5937L34.6315 35.8371L35.1828 35.2857C37.3882 33.0804 41.7988 30.3237 44.5555 29.221C58.8903 23.1563 74.3277 26.4644 84.8031 36.3884C87.5598 39.1451 90.3165 43.0044 91.9705 46.8638C95.2785 54.5825 95.8298 61.7499 94.1758 70.5713C93.0731 76.0846 89.2138 82.7006 85.9057 86.56L84.8031 87.6627C83.7004 88.214 83.7004 88.2141 83.1491 88.7654ZM15.8861 61.1986C15.8861 68.9173 16.9887 73.3279 19.7454 79.3926C20.2967 80.4953 20.8481 81.598 21.3994 82.7007C21.9508 83.8033 23.6048 86.0087 24.7074 87.1114L26.9128 89.8681C27.4641 90.4194 28.0154 90.4194 28.0154 91.5221C26.9128 91.5221 22.5021 95.3814 22.5021 95.3814C20.8481 95.3814 17.5401 90.4194 16.9887 89.3167C16.4374 88.7653 16.4374 88.214 15.8861 87.6627C15.8861 87.1113 15.3347 87.1113 15.3347 86.56C8.16736 73.8793 6.51333 58.4418 11.4754 45.2098C12.578 41.3504 15.3347 35.8371 17.5401 33.0804C21.9508 27.0157 24.1561 25.3617 29.6695 20.951C36.8368 15.4376 48.4149 11.5783 57.2363 11.5783C62.7496 11.5783 65.5063 11.5782 71.0197 13.2322C72.6737 13.7836 74.3277 14.3349 75.4304 14.8863C75.9817 15.4376 77.0844 15.4376 77.6357 15.9889L82.0464 17.6429C82.5977 17.6429 82.5977 18.1943 83.1491 18.1943C87.5598 20.3997 91.4191 23.1563 94.7272 26.4644C100.792 32.5291 105.754 40.7991 107.959 49.6205C110.165 57.3392 110.165 66.1605 107.959 73.8792C107.408 75.5333 107.408 76.6359 106.857 78.29C105.203 83.252 101.895 89.3167 98.5865 93.176C98.0352 93.7274 98.0352 94.2787 97.4838 94.83C95.8298 96.4841 95.8298 96.4841 94.1758 95.3814L89.7651 92.0734C90.3164 91.522 91.4191 90.4194 91.9705 89.3167C98.0352 82.1493 101.895 72.7766 101.895 63.4039V60.6472C101.895 54.5825 99.6891 47.9665 98.0351 44.1071C94.1758 35.2857 85.9058 27.567 77.0844 23.1563C72.6737 21.5023 66.609 19.297 60.5443 19.297C55.0309 19.297 50.0689 19.8483 44.5555 22.0537C44.0042 22.0537 43.4529 22.605 42.9015 22.605C37.9395 24.8104 35.7342 26.4643 31.3235 29.7723L28.5668 32.529C27.4641 33.6317 24.7074 36.9397 23.6048 38.0424C19.1941 44.6584 15.8861 52.3772 15.8861 61.1986ZM1.55133 59.5446C1.55133 66.1606 1.5513 68.9173 3.20531 76.0846C3.75665 77.7387 4.308 79.944 4.85934 81.0466C5.41067 81.598 5.41066 82.7007 5.96199 83.252C6.51333 84.3547 6.51335 84.906 7.06469 85.4573C8.7187 89.868 12.0267 94.2787 14.7834 98.1381C15.8861 99.7921 18.6428 102.549 20.2968 103.1C24.7075 104.754 26.3615 101.997 29.6695 99.7921C31.8748 98.1381 35.1828 96.4841 36.8369 95.3814C39.5935 94.2787 42.3502 93.176 45.6582 92.0734C58.339 88.214 73.225 90.4194 84.2517 97.0354C84.8031 97.5868 85.3544 97.5868 85.9057 98.1381C88.6624 99.7921 91.9705 102.549 93.0731 103.1C95.2785 104.203 98.0351 103.651 99.6892 101.997L103.548 97.5867C105.754 94.83 107.408 92.6247 109.062 89.3167C109.062 88.7653 109.613 88.7654 109.613 88.214C110.165 87.6627 110.165 87.1114 110.165 87.1114C110.716 86.0087 111.267 85.4574 111.267 84.3547C112.921 81.0467 113.473 78.8413 114.024 75.5333C116.229 67.2632 116.229 56.7879 114.575 48.5178C113.473 43.5558 112.37 41.9018 110.716 37.4911L108.511 32.529C106.857 29.7723 103.548 24.259 100.792 22.0537C99.6891 20.951 99.6891 20.3996 98.0351 19.297C97.4838 19.297 97.4838 18.7457 96.9325 18.1943C96.3811 17.643 95.8298 17.0916 95.2784 16.5403C90.3164 12.6809 88.1111 11.0269 82.0464 8.27024C72.1224 3.85955 57.7876 1.65422 45.6582 4.41091C40.1449 5.51358 35.1828 7.71888 30.2208 10.4756C28.0155 11.5782 25.8101 13.2323 23.6048 14.8863L19.7454 18.1943C17.5401 19.8483 15.3347 22.0536 13.6807 24.259C7.06467 32.529 2.65401 41.9018 1 52.3772C1.55134 55.1338 1.55133 57.3392 1.55133 59.5446Z" fill="#09099D" stroke="#09099D" stroke-width="0.4802" stroke-miterlimit="10" stroke-linecap="round" stroke-linejoin="round"/>
<path fill-rule="evenodd" clip-rule="evenodd" d="M48.4149 62.3012C48.4149 58.9931 49.5176 56.2364 51.7229 54.5824C56.1336 50.723 62.1983 51.2744 66.0576 55.1338C69.917 58.9931 69.917 65.0578 66.609 68.9172C65.5063 70.0199 64.4036 71.1225 62.7496 71.6739C55.5823 74.4305 48.4149 68.9172 48.4149 62.3012ZM58.8903 79.9439C59.993 79.9439 61.647 79.9439 62.7496 79.3925C66.0577 78.8412 68.8144 77.1872 71.5711 74.4305C83.1491 62.8525 74.8791 43.5557 58.8903 43.5557C50.6202 43.5557 43.4528 49.6204 41.2475 57.3391C40.6962 59.5444 40.6962 61.1985 40.6962 63.4038C40.6962 65.0578 41.2475 67.2632 42.3502 68.9172C44.5555 73.8792 48.9662 77.7385 54.4796 79.3925C55.5823 79.9439 57.7876 79.9439 58.8903 79.9439Z" fill="#09099D" stroke="#09099D" stroke-width="0.4802" stroke-miterlimit="10" stroke-linecap="round" stroke-linejoin="round"/>
<path fill-rule="evenodd" clip-rule="evenodd" d="M58.3392 105.305C63.3012 105.305 68.8145 106.408 73.2252 108.613C75.9819 109.716 77.0847 110.267 79.8413 112.473L81.4953 113.575C85.3546 115.781 89.7654 110.819 85.3547 107.511C84.8034 106.959 84.252 106.959 83.7007 106.408C77.636 102.549 72.1226 99.7919 64.9552 98.6892L61.6472 98.1379C61.0959 98.1379 61.0959 98.1379 60.5445 98.1379C56.6852 98.1379 56.1338 98.1379 52.2745 98.6892C50.6205 98.6892 49.5178 99.2406 48.4151 99.2406C43.4531 100.343 35.1831 104.203 31.875 107.511C28.0157 110.819 32.9777 115.781 36.2857 113.575C40.1451 110.819 44.0044 108.062 49.5178 106.959C52.2745 105.305 55.5825 105.305 58.3392 105.305Z" fill="#09099D" stroke="#09099D" stroke-width="0.4802" stroke-miterlimit="10" stroke-linecap="round" stroke-linejoin="round"/>
<path fill-rule="evenodd" clip-rule="evenodd" d="M51.7229 115.781C51.7229 117.986 53.3769 119.64 55.5822 119.64C56.6849 119.64 56.6849 119.64 57.2363 119.64H59.9929C60.5443 119.64 62.7496 120.743 64.4036 119.089C65.5063 117.986 65.5063 116.332 64.955 114.678C64.955 114.127 64.4036 114.127 64.4036 113.575C63.8523 113.024 62.7496 112.473 61.647 112.473H55.5822C53.3769 112.473 51.7229 113.575 51.7229 115.781Z" fill="#09099D" stroke="#09099D" stroke-width="0.4802" stroke-miterlimit="10" stroke-linecap="round" stroke-linejoin="round"/>
<path d="M199.481 103.1C195.07 106.408 189.006 108.062 182.941 108.062C166.952 108.062 157.579 99.2405 157.579 83.2518V47.9662H145.45V34.1828H157.579V16.54H174.671V33.6315H194.519V47.4149H174.671V82.7004C174.671 89.8678 178.53 93.7271 185.146 93.7271C189.006 93.7271 192.314 92.6244 195.07 90.4191L199.481 103.1Z" fill="#09099D"/>
<path d="M275.566 63.955V107.51H259.025V98.6891C254.615 105.305 246.896 108.613 235.869 108.613C218.778 108.613 208.302 99.2404 208.302 86.5597C208.302 74.4303 216.572 64.5063 239.177 64.5063H258.474V63.4036C258.474 53.4796 252.409 47.4149 240.28 47.4149C232.01 47.4149 223.189 50.1715 217.675 54.5822L211.059 41.9016C218.778 35.8369 230.356 32.5288 242.485 32.5288C263.436 32.5288 275.566 42.4529 275.566 63.955ZM258.474 83.803V74.9817H240.831C229.253 74.9817 225.945 79.3923 225.945 84.9057C225.945 90.9704 231.459 95.3811 240.28 95.3811C247.999 95.3811 255.166 91.5217 258.474 83.803Z" fill="#09099D"/>
<path d="M297.619 4.41064H314.71V106.959H297.619V4.41064Z" fill="#09099D"/>
<path d="M406.783 75.5331H348.893C351.098 86.5598 359.92 93.1758 372.601 93.1758C380.871 93.1758 387.487 90.4191 392.449 84.9058L401.821 95.3812C395.205 103.1 384.73 107.511 372.049 107.511C347.239 107.511 331.25 91.5219 331.25 69.4684C331.25 47.415 347.239 31.9775 369.293 31.9775C390.795 31.9775 406.783 46.8636 406.783 70.0197C406.783 71.6737 406.783 73.8791 406.783 75.5331ZM348.893 63.9551H390.795C389.141 53.4797 381.422 45.7609 369.844 45.7609C358.266 46.3123 350.547 53.4797 348.893 63.9551Z" fill="#09099D"/>
<path d="M547.374 64.5063V106.959H530.283V66.7117C530.283 53.4797 524.218 47.415 513.743 47.415C502.164 47.415 494.446 55.1337 494.446 69.4684V106.959H477.354V66.7117C477.354 53.4797 471.29 47.415 460.814 47.415C449.236 47.415 441.517 55.1337 441.517 69.4684V106.959H424.426V33.0802H440.966V42.4529C446.479 35.8369 455.301 31.9775 465.225 31.9775C476.252 31.9775 485.073 35.8369 490.035 44.1069C496.1 36.3882 506.024 31.9775 517.602 31.9775C534.693 32.5289 547.374 42.4529 547.374 64.5063Z" fill="#09099D"/>
<path d="M566.671 10.4753C566.671 4.41065 571.633 0 577.698 0C583.762 0 588.724 4.4107 588.724 9.92406C588.724 15.9888 584.314 20.9508 577.698 20.9508C571.633 20.9508 566.671 16.54 566.671 10.4753ZM569.428 33.0802H586.519V106.959H569.428V33.0802Z" fill="#09099D"/>
<path d="M670.873 63.955V107.51H654.333V98.6891C649.923 105.305 642.204 108.613 631.177 108.613C614.086 108.613 603.61 99.2404 603.61 86.5597C603.61 74.4303 611.88 64.5063 634.485 64.5063H653.782V63.4036C653.782 53.4796 647.717 47.4149 635.588 47.4149C627.318 47.4149 618.496 50.1715 612.983 54.5822L606.367 41.9016C614.086 35.8369 625.664 32.5288 637.793 32.5288C658.744 32.5288 670.873 42.4529 670.873 63.955ZM653.782 83.803V74.9817H636.139C624.561 74.9817 621.253 79.3923 621.253 84.9057C621.253 90.9704 626.766 95.3811 635.588 95.3811C643.306 95.3811 651.025 91.5217 653.782 83.803Z" fill="#09099D"/>
</svg>
